<mxfile host="app.diagrams.net" modified="2023-10-21T22:30:16.826Z" agent="Mozilla/5.0 (Windows NT 10.0; Win64; x64) AppleWebKit/537.36 (KHTML, like Gecko) Chrome/118.0.0.0 Safari/537.36" version="22.0.6" etag="cyxbbLpSHBvHT_nAD1pj" type="github">
  <diagram name="Page-1" id="j3xYtXauVi5lU591Se2V">
    <mxGraphModel>
      <root>
        <mxCell id="0" />
        <mxCell id="1" parent="0" />
      </root>
    </mxGraphModel>
  </diagram>
</mxfile>
